<mxfile host="Electron" modified="2024-11-05T15:40:22.078Z" agent="Mozilla/5.0 (Windows NT 10.0; Win64; x64) AppleWebKit/537.36 (KHTML, like Gecko) draw.io/22.0.3 Chrome/114.0.5735.289 Electron/25.8.4 Safari/537.36" etag="Wkvkaz-c5qzo5J7UDZFz" version="22.0.3" type="device">
  <diagram name="PÃ¡gina-1" id="pEpQsw88bxrzs4P2E10M">
    <mxGraphModel dx="1098" dy="687" grid="1" gridSize="10" guides="1" tooltips="1" connect="1" arrows="1" fold="1" page="1" pageScale="1" pageWidth="827" pageHeight="1169" math="0" shadow="0">
      <root>
        <mxCell id="0" />
        <mxCell id="1" parent="0" />
        <mxCell id="OT_t72DNXbIkr_OKzylJ-2" value="" style="ellipse;whiteSpace=wrap;html=1;fillColor=#e1d5e7;strokeColor=#9673a6;" vertex="1" parent="1">
          <mxGeometry x="80" y="110" width="570" height="430" as="geometry" />
        </mxCell>
        <mxCell id="OT_t72DNXbIkr_OKzylJ-3" value="&lt;b style=&quot;font-size: 20px;&quot;&gt;MPI_COMM_WORLD&lt;/b&gt;" style="text;html=1;strokeColor=none;fillColor=none;align=center;verticalAlign=middle;whiteSpace=wrap;rounded=0;fontSize=20;" vertex="1" parent="1">
          <mxGeometry x="335" y="130" width="60" height="30" as="geometry" />
        </mxCell>
        <mxCell id="OT_t72DNXbIkr_OKzylJ-4" value="" style="ellipse;whiteSpace=wrap;html=1;fillColor=#dae8fc;strokeColor=#6c8ebf;" vertex="1" parent="1">
          <mxGeometry x="140" y="200" width="440" height="280" as="geometry" />
        </mxCell>
        <mxCell id="OT_t72DNXbIkr_OKzylJ-5" value="&lt;b style=&quot;font-size: 20px;&quot;&gt;MPI_Comm intercom&lt;/b&gt;" style="text;html=1;strokeColor=none;fillColor=none;align=center;verticalAlign=middle;whiteSpace=wrap;rounded=0;fontSize=20;" vertex="1" parent="1">
          <mxGeometry x="330" y="220" width="60" height="30" as="geometry" />
        </mxCell>
        <mxCell id="OT_t72DNXbIkr_OKzylJ-7" value="0" style="ellipse;whiteSpace=wrap;html=1;aspect=fixed;fillColor=#fff2cc;strokeColor=#d6b656;" vertex="1" parent="1">
          <mxGeometry x="490" y="180" width="40" height="40" as="geometry" />
        </mxCell>
        <mxCell id="OT_t72DNXbIkr_OKzylJ-8" value="1" style="ellipse;whiteSpace=wrap;html=1;aspect=fixed;fillColor=#fff2cc;strokeColor=#d6b656;" vertex="1" parent="1">
          <mxGeometry x="250" y="320" width="40" height="40" as="geometry" />
        </mxCell>
        <mxCell id="OT_t72DNXbIkr_OKzylJ-9" value="" style="ellipse;whiteSpace=wrap;html=1;fillColor=#e1d5e7;strokeColor=#9673a6;" vertex="1" parent="1">
          <mxGeometry x="210" y="265" width="300" height="190" as="geometry" />
        </mxCell>
        <mxCell id="OT_t72DNXbIkr_OKzylJ-10" value="&lt;b style=&quot;font-size: 14px;&quot;&gt;MPI_COMM_WORLD&lt;/b&gt;" style="text;html=1;strokeColor=none;fillColor=none;align=center;verticalAlign=middle;whiteSpace=wrap;rounded=0;fontSize=14;" vertex="1" parent="1">
          <mxGeometry x="335" y="280" width="60" height="30" as="geometry" />
        </mxCell>
        <mxCell id="OT_t72DNXbIkr_OKzylJ-11" value="0" style="ellipse;whiteSpace=wrap;html=1;aspect=fixed;fillColor=#fff2cc;strokeColor=#d6b656;" vertex="1" parent="1">
          <mxGeometry x="250" y="320" width="40" height="40" as="geometry" />
        </mxCell>
        <mxCell id="OT_t72DNXbIkr_OKzylJ-12" value="1" style="ellipse;whiteSpace=wrap;html=1;aspect=fixed;fillColor=#fff2cc;strokeColor=#d6b656;" vertex="1" parent="1">
          <mxGeometry x="295" y="360" width="40" height="40" as="geometry" />
        </mxCell>
        <mxCell id="OT_t72DNXbIkr_OKzylJ-13" value="2" style="ellipse;whiteSpace=wrap;html=1;aspect=fixed;fillColor=#fff2cc;strokeColor=#d6b656;" vertex="1" parent="1">
          <mxGeometry x="374" y="390" width="40" height="40" as="geometry" />
        </mxCell>
        <mxCell id="OT_t72DNXbIkr_OKzylJ-14" value="3" style="ellipse;whiteSpace=wrap;html=1;aspect=fixed;fillColor=#fff2cc;strokeColor=#d6b656;" vertex="1" parent="1">
          <mxGeometry x="350" y="330" width="40" height="40" as="geometry" />
        </mxCell>
      </root>
    </mxGraphModel>
  </diagram>
</mxfile>
